<mxfile host="Electron" modified="2024-02-17T13:42:31.390Z" agent="Mozilla/5.0 (Macintosh; Intel Mac OS X 10_15_7) AppleWebKit/537.36 (KHTML, like Gecko) draw.io/23.1.5 Chrome/120.0.6099.109 Electron/28.1.0 Safari/537.36" etag="2F0qKWTqz3XzF29LsH8y" version="23.1.5" type="device">
  <diagram name="페이지-1" id="hWgzivpM7J4klsmShNLB">
    <mxGraphModel dx="1114" dy="894" grid="1" gridSize="10" guides="1" tooltips="1" connect="1" arrows="1" fold="1" page="1" pageScale="1" pageWidth="827" pageHeight="1169" math="0" shadow="0">
      <root>
        <mxCell id="0" />
        <mxCell id="1" parent="0" />
        <mxCell id="nGm4whLpDH-qzPOQHpXq-12" style="edgeStyle=orthogonalEdgeStyle;rounded=0;orthogonalLoop=1;jettySize=auto;html=1;entryX=0.5;entryY=0;entryDx=0;entryDy=0;endArrow=block;endFill=1;" edge="1" parent="1" source="nGm4whLpDH-qzPOQHpXq-1" target="nGm4whLpDH-qzPOQHpXq-3">
          <mxGeometry relative="1" as="geometry" />
        </mxCell>
        <mxCell id="nGm4whLpDH-qzPOQHpXq-1" value="CustomCsrfTokenRepository" style="rounded=0;whiteSpace=wrap;html=1;fillColor=#f8cecc;strokeColor=#b85450;" vertex="1" parent="1">
          <mxGeometry x="319" y="90" width="190" height="50" as="geometry" />
        </mxCell>
        <mxCell id="nGm4whLpDH-qzPOQHpXq-2" value="CsrfFilter" style="rounded=0;whiteSpace=wrap;html=1;" vertex="1" parent="1">
          <mxGeometry x="160" y="90" width="110" height="50" as="geometry" />
        </mxCell>
        <mxCell id="nGm4whLpDH-qzPOQHpXq-3" value="JpaTokenRepository" style="rounded=0;whiteSpace=wrap;html=1;fillColor=#f8cecc;strokeColor=#b85450;" vertex="1" parent="1">
          <mxGeometry x="319" y="180" width="190" height="50" as="geometry" />
        </mxCell>
        <mxCell id="nGm4whLpDH-qzPOQHpXq-4" value="" style="html=1;verticalLabelPosition=bottom;align=center;labelBackgroundColor=#ffffff;verticalAlign=top;strokeWidth=2;strokeColor=#0080F0;shadow=0;dashed=0;shape=mxgraph.ios7.icons.data;" vertex="1" parent="1">
          <mxGeometry x="390" y="280" width="50" height="40" as="geometry" />
        </mxCell>
        <mxCell id="nGm4whLpDH-qzPOQHpXq-5" value="" style="endArrow=block;html=1;rounded=0;endFill=1;" edge="1" parent="1">
          <mxGeometry width="50" height="50" relative="1" as="geometry">
            <mxPoint x="60" y="106" as="sourcePoint" />
            <mxPoint x="160" y="106" as="targetPoint" />
          </mxGeometry>
        </mxCell>
        <mxCell id="nGm4whLpDH-qzPOQHpXq-9" value="Request" style="edgeLabel;html=1;align=center;verticalAlign=middle;resizable=0;points=[];" vertex="1" connectable="0" parent="nGm4whLpDH-qzPOQHpXq-5">
          <mxGeometry x="-0.42" y="2" relative="1" as="geometry">
            <mxPoint x="24" as="offset" />
          </mxGeometry>
        </mxCell>
        <mxCell id="nGm4whLpDH-qzPOQHpXq-6" value="" style="endArrow=none;html=1;rounded=0;endFill=0;startArrow=block;startFill=1;" edge="1" parent="1">
          <mxGeometry width="50" height="50" relative="1" as="geometry">
            <mxPoint x="60" y="125" as="sourcePoint" />
            <mxPoint x="160" y="125" as="targetPoint" />
          </mxGeometry>
        </mxCell>
        <mxCell id="nGm4whLpDH-qzPOQHpXq-10" value="Response" style="edgeLabel;html=1;align=center;verticalAlign=middle;resizable=0;points=[];" vertex="1" connectable="0" parent="nGm4whLpDH-qzPOQHpXq-6">
          <mxGeometry x="0.22" y="-4" relative="1" as="geometry">
            <mxPoint x="-4" y="-5" as="offset" />
          </mxGeometry>
        </mxCell>
        <mxCell id="nGm4whLpDH-qzPOQHpXq-7" value="" style="endArrow=block;html=1;rounded=0;endFill=1;fontStyle=1" edge="1" parent="1">
          <mxGeometry width="50" height="50" relative="1" as="geometry">
            <mxPoint x="269" y="114.5" as="sourcePoint" />
            <mxPoint x="319" y="114.5" as="targetPoint" />
          </mxGeometry>
        </mxCell>
        <mxCell id="nGm4whLpDH-qzPOQHpXq-13" style="edgeStyle=orthogonalEdgeStyle;rounded=0;orthogonalLoop=1;jettySize=auto;html=1;entryX=0.48;entryY=-0.025;entryDx=0;entryDy=0;entryPerimeter=0;endArrow=block;endFill=1;" edge="1" parent="1" source="nGm4whLpDH-qzPOQHpXq-3" target="nGm4whLpDH-qzPOQHpXq-4">
          <mxGeometry relative="1" as="geometry" />
        </mxCell>
        <mxCell id="nGm4whLpDH-qzPOQHpXq-14" value="CSRF 토큰을 다르게 관리하는 &lt;br&gt;맞춤형 CsrfTokenRepository 구현" style="text;html=1;align=center;verticalAlign=middle;whiteSpace=wrap;rounded=0;fillColor=#d5e8d4;strokeColor=#82b366;sketch=1;curveFitting=1;jiggle=2;" vertex="1" parent="1">
          <mxGeometry x="520" y="30" width="200" height="40" as="geometry" />
        </mxCell>
        <mxCell id="nGm4whLpDH-qzPOQHpXq-15" style="edgeStyle=orthogonalEdgeStyle;rounded=0;orthogonalLoop=1;jettySize=auto;html=1;entryX=0.679;entryY=-0.02;entryDx=0;entryDy=0;entryPerimeter=0;fillColor=#d5e8d4;strokeColor=#82b366;curved=1;" edge="1" parent="1" source="nGm4whLpDH-qzPOQHpXq-14" target="nGm4whLpDH-qzPOQHpXq-1">
          <mxGeometry relative="1" as="geometry" />
        </mxCell>
        <mxCell id="nGm4whLpDH-qzPOQHpXq-17" style="edgeStyle=orthogonalEdgeStyle;rounded=0;orthogonalLoop=1;jettySize=auto;html=1;entryX=1;entryY=0.5;entryDx=0;entryDy=0;fillColor=#d5e8d4;strokeColor=#82b366;curved=1;" edge="1" parent="1" source="nGm4whLpDH-qzPOQHpXq-16" target="nGm4whLpDH-qzPOQHpXq-3">
          <mxGeometry relative="1" as="geometry">
            <Array as="points">
              <mxPoint x="600" y="230" />
              <mxPoint x="529" y="230" />
              <mxPoint x="529" y="205" />
            </Array>
          </mxGeometry>
        </mxCell>
        <mxCell id="nGm4whLpDH-qzPOQHpXq-16" value="CSRF 토큰이 DB 에 저장되므로 JPA Repository 정의" style="text;html=1;align=center;verticalAlign=middle;whiteSpace=wrap;rounded=0;fillColor=#d5e8d4;strokeColor=#82b366;sketch=1;curveFitting=1;jiggle=2;" vertex="1" parent="1">
          <mxGeometry x="530" y="250" width="200" height="40" as="geometry" />
        </mxCell>
      </root>
    </mxGraphModel>
  </diagram>
</mxfile>
